<?xml version="1.0" encoding="utf-8"?>
<!-- Generator: Adobe Illustrator 22.1.0, SVG Export Plug-In . SVG Version: 6.00 Build 0)  -->
<svg version="1.1" id="Layer_1" xmlns="http://www.w3.org/2000/svg" xmlns:xlink="http://www.w3.org/1999/xlink" x="0px" y="0px"
	 viewBox="0 0 234 234" style="enable-background:new 0 0 234 234;" xml:space="preserve">
<style type="text/css">
	.st0{fill:#0229CE;}
	.st1{fill:#FFAA00;}
	.st2{fill:#FF433F;}
</style>
<g id="XMLID_425_">
	<g id="XMLID_431_">
		<path id="XMLID_435_" class="st0" d="M162.2,39.6c-0.4-0.8-1.4-1.2-2.2-0.7c-0.2,0.1-76.6,67.3-76.7,67.4
			c-0.7,0.7-1.1,1.3-0.7,2.2c0.2,0.5,0.7,0.8,1.2,0.9l0,0l21.3,1.7l-38.7,71c-0.2,0.4-0.2,0.9,0,1.4c0,0,0,0,0,0
			c0.4,0.8,1.4,1.1,2.2,0.7c0.4-0.2,77.3-68.8,77.3-68.8c0.3-0.5,0.3-1.1,0.1-1.6c-0.4-0.8-0.7-1-2.2-1l-11.5-0.5l-7.9-0.4
			l37.6-70.6C162.3,40.6,162.5,40.2,162.2,39.6z"/>
		<path id="XMLID_432_" class="st0" d="M169.5,35.9c-2-4-6.4-6.1-10.7-5.3v0c-0.9,0.2-1.7,0.5-2.5,0.9c-1,0.5-1,0.5-5.1,4.1
			c-2.1,1.9-5.1,4.5-8.7,7.7c-7.2,6.3-16.8,14.7-26.3,23.2c-0.4,0.3-38.2,33.6-38.5,33.9c-3.2,3.1-4.2,7-2.8,11c0.7,2,3.1,4.7,6.5,6
			l0.4,0.1l10.1,0.9l-32.7,59.9l-0.4,0.8c-1.1,2.7-1,5.7,0.3,8.2c0.1,0.2,0.2,0.4,0.3,0.6c1.8,3.1,5.1,4.9,8.5,4.9
			c0.6,0,1.2-0.1,1.9-0.2c0.9-0.2,1.7-0.5,2.5-0.9c1-0.5,1-0.5,5.2-4.2c2.1-1.9,5.2-4.6,8.8-7.8c6.4-5.7,15.4-13.7,26.5-23.6
			c19.3-17.2,38.5-34.3,38.5-34.3l0.9-0.8l0.6-1c1.8-2.9,2-6.5,0.5-9.6c-1.8-3.6-4.9-5.5-9.3-5.6l-6.3-0.3l31.5-59.1l0.2-0.4
			C170,43.6,171.6,40.1,169.5,35.9z M109.6,108.7l-22.7-1.9c9.5-8.3,54-47.5,69.5-61.1l-36.8,69l21.8,1
			c-21.5,19.1-56,49.9-69.2,61.7L109.6,108.7z"/>
	</g>
	<g id="XMLID_426_">
		<path id="XMLID_430_" class="st1" d="M66.8,183.5C66.8,183.5,66.8,183.5,66.8,183.5l0-1.4C66.6,182.5,66.5,183,66.8,183.5z"/>
		<path id="XMLID_429_" class="st1" d="M111.4,111.5l48.9-72.8c-0.2,0.1-76.6,67.3-76.7,67.4c-0.7,0.7-1.1,1.3-0.7,2.2
			c0.2,0.5,0.7,0.8,1.2,0.9l0,0l21.3,1.7l-38.7,71l64.3-69.7l1.6-0.1l-7.9-0.4L111.4,111.5z"/>
		<path id="XMLID_428_" class="st2" d="M124.7,112l37.6-70.6c0.4-0.8,0.6-1.2,0.2-1.8c-0.4-0.8-1.4-1.2-2.2-0.7l-48.9,72.8
			L124.7,112z"/>
		<path id="XMLID_427_" class="st2" d="M66.7,182.1l0.1,1.4c0.4,0.8,1.4,1.1,2.2,0.7c0.4-0.2,77.3-68.8,77.3-68.8
			c0.3-0.5,0.3-1.1,0.1-1.6c-0.4-0.8-0.7-1-2.2-1l-11.5-0.5l-1.6,0.1L66.7,182.1z"/>
	</g>
</g>
</svg>
