<?xml version="1.0" encoding="utf-8"?>
<!-- Generator: Adobe Illustrator 22.1.0, SVG Export Plug-In . SVG Version: 6.00 Build 0)  -->
<svg version="1.1" id="Layer_1" xmlns="http://www.w3.org/2000/svg" xmlns:xlink="http://www.w3.org/1999/xlink" x="0px" y="0px"
	 viewBox="0 0 841.9 595.3" style="enable-background:new 0 0 841.9 595.3;" xml:space="preserve">
<style type="text/css">
	.st0{fill:#000BF0;}
	.st1{fill:#0229CE;}
	.st2{fill:#FFAA00;}
	.st3{fill:#FF433F;}
</style>
<g id="XMLID_457_">
	<g id="XMLID_450_">
		<path id="XMLID_496_" class="st1" d="M602.6,86.8L602.6,86.8c-7.9-6.1-17.2-9.2-27.7-9.2c-8.2,0-15.9,2-22.9,6l-0.9,0.5
			c0,0-0.1,0.1-0.1,0.1l-1.7,1v0.1c-6.5,4.4-11.3,10.5-14.2,18l-28.2,72.1l15.7,18.3l32.6-83.5c1.6-4.1,4-7.1,7.5-9.2
			c3.7-2.2,7.7-3.3,12.1-3.3c5.4,0,10,1.5,14,4.6c3.4,2.7,5,6.2,5,11c0,1.6-0.4,4.6-2.2,9.7l-72.9,179.2c-1.5,3.9-4.2,6.8-8.5,9.1
			c-4.8,2.6-10,3.8-15.9,3.8c-5.9,0-11-1.2-15.7-3.8c-4.1-2.2-6.8-5.2-8.3-9.1l-39.1-99.4c-1.3-3.4-5.1-5.4-10.9-5.7
			c-5.7-0.3-15.3,1.3-18,6.7l-48.5,97.9l-0.1,0.2c-1.8,4-4.6,7.1-8.8,9.3c-4.7,2.5-9.7,3.8-15.3,3.8c-5.9,0-11-1.2-15.7-3.8
			c-4.1-2.2-6.8-5.1-8.4-9.1l-73.3-179.1c-1.2-3.2-1.9-6.3-1.9-9c0-5.1,1.6-8.5,5.5-11.3c4.5-3.3,9.6-4.9,15.7-4.9
			c4.8,0,9.1,1.1,13.2,3.4c3.6,2,6,4.9,7.6,9.1l59.5,155.4l62.9-155.3c1.6-4.1,4.1-7.1,7.5-9.2c3.7-2.2,7.7-3.3,12.1-3.3
			c4.4,0,8.3,1.1,11.9,3.3c0.7,0.5,1.4,1,2.1,1.6l2.9,2.5l13-16.3l-3-2.3c-1.2-0.9-2.3-1.7-3.3-2.3c-7.1-4.4-15-6.6-23.7-6.6
			c-8.6,0-16.6,2.2-23.8,6.5c-7.4,4.5-12.8,10.9-16,19.1l-42.3,104.3l-39.9-104.1c-3.3-8.6-8.9-15.2-16.8-19.6
			c-7.3-4.1-15.5-6.2-24.2-6.2c-10.9,0-20.6,3.1-28.9,9.2c-9.1,6.7-13.7,15.9-13.7,27.2c0,5.1,1.1,10.5,3.2,16l73.3,179.2
			c3.3,8.4,9.3,14.9,17.7,19.5c7.9,4.3,16.8,6.5,26.4,6.5c9.4,0,18.1-2.2,26-6.5c8.3-4.5,14.3-10.9,17.9-19.1l44-79.1l32.6,78.6
			c3.3,8.4,9.3,15,17.8,19.6c7.9,4.3,16.8,6.5,26.4,6.5c9.6,0,18.5-2.2,26.5-6.4c8.6-4.6,14.7-11.2,18-19.5l72.9-179.2l0.1-0.2
			c2.3-6.4,3.5-11.8,3.5-16.5C615.4,102.4,611.1,93.4,602.6,86.8z"/>
		<path id="XMLID_453_" class="st1" d="M510.7,212.2c-10.9,0-19.7-8.8-19.7-19.7c0-10.9,8.8-19.7,19.7-19.7
			c10.9,0,19.7,8.8,19.7,19.7C530.4,203.4,521.5,212.2,510.7,212.2z M510.7,186.3c-3.4,0-6.2,2.8-6.2,6.2c0,3.4,2.8,6.2,6.2,6.2
			s6.2-2.8,6.2-6.2C516.9,189.1,514.1,186.3,510.7,186.3z"/>
		<path id="XMLID_451_" class="st1" d="M441.8,122.4c-10.9,0-19.7-8.8-19.7-19.7c0-10.9,8.8-19.7,19.7-19.7
			c10.9,0,19.7,8.8,19.7,19.7C461.5,113.5,452.7,122.4,441.8,122.4z M441.8,96.4c-3.4,0-6.2,2.8-6.2,6.2c0,3.4,2.8,6.2,6.2,6.2
			c3.4,0,6.2-2.8,6.2-6.2C448,99.2,445.2,96.4,441.8,96.4z"/>
	</g>
	<g id="XMLID_436_">
		<path id="XMLID_447_" class="st1" d="M338.4,405.5c0-3.9-1.3-7-4-9.2c-2.6-2.3-5.7-3.4-9.3-3.4c-2.9,0-5.6,0.8-8,2.4
			c-2.4,1.6-4.2,3.9-5.3,7l-23.1,65.2l-22-65c-1.1-3.1-2.8-5.5-5.2-7.1c-2.4-1.6-5-2.4-7.9-2.4c-2.9,0-5.6,0.8-8,2.4
			c-2.4,1.6-4.2,3.9-5.3,7l-23.5,63.8l-22.2-63.8c-0.7-2-1.7-3.7-3-5c-2-2.9-5.2-4.7-8.7-4.7h-57.9c-5.1-6.3-13.3-10.5-22.6-10.5
			c-15.5,0-28,11.4-28,25.5s12.6,25.5,28,25.5c11.3,0,21.1-6.2,25.5-15h42l30.5,82c1.1,3,3,5.4,5.8,7c2.8,1.7,5.9,2.5,9.4,2.5
			c3.3,0,6.4-0.8,9.2-2.5c2.8-1.7,4.8-4,6-7l22-60l21,60c1.1,3,3,5.4,5.8,7c2.8,1.7,5.9,2.5,9.4,2.5c3.5,0,6.6-0.8,9.5-2.5
			c2.9-1.7,4.8-4,5.9-7l32.5-88C338,409.4,338.4,407.3,338.4,405.5z M102.6,415c-4.5,0-8.2-3.4-8.2-7.5s3.7-7.5,8.2-7.5
			c3.4,0,6.3,1.9,7.6,4.5c0,0.2,0,0.5,0,0.7c0,1.3,0.2,2.6,0.5,3.8C109.8,412.5,106.5,415,102.6,415z"/>
		<path id="XMLID_444_" class="st1" d="M401,400.6c-1.4-2.9-3.5-5.1-6.3-6.7c-2.8-1.6-5.8-2.3-9.1-2.3c-3.3,0-6.4,0.8-9.1,2.3
			c-2.7,1.6-4.8,3.8-6.2,6.7l-42.7,87.7c-1,2.1-1.5,4-1.5,6c0,3.6,1.5,6.6,4.4,9.1c3,2.5,6.3,3.7,10,3.7c2.5,0,4.8-0.6,6.9-1.9
			c2.1-1.3,3.7-3.2,4.9-5.8l7.4-16.3h52.4l7.3,16.3c1.2,2.6,2.8,4.5,4.9,5.8c2,1.3,4.3,1.9,6.8,1.9c3.7,0,6.9-1.2,9.8-3.7
			c2.9-2.5,4.3-5.5,4.3-9.1c0-1.9-0.5-3.9-1.5-6L401,400.6z M369.8,460.7l16.2-36.1l16.2,36.1H369.8z"/>
		<path id="XMLID_440_" class="st1" d="M524.1,400.6c-1.4-2.9-3.5-5.1-6.3-6.7c-2.8-1.6-5.8-2.3-9.1-2.3c-3.3,0-6.4,0.8-9.1,2.3
			c-2.7,1.6-4.8,3.8-6.2,6.7l-42.7,87.7c-1,2.1-1.5,4-1.5,6c0,3.6,1.5,6.6,4.4,9.1c3,2.5,6.3,3.7,10,3.7c2.5,0,4.8-0.6,6.9-1.9
			c2.1-1.3,3.7-3.2,4.9-5.8l7.4-16.3h52.4l7.3,16.3c1.2,2.6,2.8,4.5,4.9,5.8c2,1.3,4.3,1.9,6.8,1.9c3.7,0,6.9-1.2,9.8-3.7
			c2.9-2.5,4.3-5.5,4.3-9.1c0-1.9-0.5-3.9-1.5-6L524.1,400.6z M492.9,460.7l16.2-36.1l16.2,36.1H492.9z"/>
		<path id="XMLID_437_" class="st1" d="M725.4,387.1c-9.8,0-18.4,4.6-23.4,11.5h-45.1c-3.7-2.1-7.6-3.7-11.7-4.9
			c-6.1-1.7-13.2-2.6-21-2.6c-9,0-17,1.6-24.2,4.8c-7.2,3.2-12.8,7.6-16.9,13.2c-4.1,5.6-6.1,11.9-6.1,18.8c0,6,1.2,11.2,3.6,15.5
			c2.4,4.3,6.7,8,12.7,11.1c6,3.1,14.4,5.8,25.1,8.1c8.6,1.7,14.5,3.5,17.6,5.3c3.1,1.8,4.6,3.9,4.6,6.4c0,3.7-1.6,6.4-4.9,8.3
			c-3.3,1.9-8.1,2.8-14.5,2.8c-5.5,0-10.4-0.5-14.8-1.6c-4.4-1.1-8.8-2.9-13.2-5.3c-1.9-1.2-3.6-2-4.9-2.4c-1.3-0.4-2.6-0.6-4-0.6
			c-2.6,0-4.9,1.2-6.8,3.6c-1.9,2.4-2.9,5.2-2.9,8.4c0,2.4,0.4,4.3,1.2,5.8c0.8,1.5,2.1,3,4,4.4c4.7,3.3,10.8,6,18.2,7.8
			c7.4,1.9,15.4,2.8,24,2.8c9.5,0,17.8-1.5,25-4.4c7.2-3,12.8-7.2,16.7-12.6c4-5.4,6-11.7,6-18.8c0-5.7-1.2-10.7-3.7-14.9
			c-2.5-4.2-6.7-7.9-12.6-11.1c-5.9-3.2-14.1-5.9-24.4-8.2c-6.4-1.3-11.2-2.6-14.4-3.8c-3.2-1.2-5.4-2.5-6.6-3.8
			c-1.2-1.3-1.8-3-1.8-5c0-3.5,1.7-6.2,5-8.3c3.3-2.1,7.8-3.2,13.3-3.2c4,0,7.7,0.4,11.1,1.2c3.4,0.8,6.4,1.9,8.9,3.2
			c1.4,0.8,2.6,1.4,3.4,1.8c1.8,2.4,4.2,3.8,6.9,3.8h45.9c4.6,8.3,14.1,14,25,14c15.5,0,28-11.4,28-25.5S740.8,387.1,725.4,387.1z
			 M725.4,420c-4.1,0-7.4-2.7-8.1-6.2c0.1-0.8,0.2-1.7,0.2-2.5c0-0.2,0-0.5,0-0.7c0.9-3.2,4.1-5.5,8-5.5c4.5,0,8.2,3.4,8.2,7.5
			S729.9,420,725.4,420z"/>
	</g>
	<g id="XMLID_425_">
		<g id="XMLID_431_">
			<path id="XMLID_435_" class="st1" d="M499.2,104.8c-0.6-1.2-2.1-1.7-3.3-1.1c-0.3,0.2-114.7,100.8-114.8,100.9
				c-1.1,1.1-1.6,1.9-1.1,3.3c0.3,0.8,1.1,1.2,1.8,1.3l0,0.1l31.8,2.6l-57.9,106.3c-0.3,0.6-0.3,1.4,0.1,2.1c0,0,0,0,0,0.1
				c0.6,1.2,2.1,1.6,3.3,1c0.6-0.3,115.7-102.9,115.7-102.9c0.4-0.7,0.5-1.6,0.1-2.4c-0.6-1.2-1.1-1.5-3.3-1.5l-17.3-0.8l-11.8-0.5
				l56.3-105.8C499.4,106.3,499.7,105.8,499.2,104.8z"/>
			<path id="XMLID_432_" class="st1" d="M510.2,99.3c-3-5.9-9.5-9.2-16-7.9v0c-1.3,0.3-2.6,0.7-3.8,1.3c-1.5,0.7-1.5,0.7-7.6,6.1
				c-3.2,2.8-7.7,6.7-13,11.5c-10.8,9.5-25.1,22.1-39.4,34.7c-0.6,0.5-57.2,50.3-57.7,50.8c-4.8,4.6-6.3,10.6-4.2,16.4
				c1.1,3,4.6,7.1,9.8,9l0.5,0.2l15.1,1.3l-48.9,89.7l-0.6,1.1c-1.7,4-1.5,8.5,0.4,12.3c0.2,0.3,0.3,0.6,0.5,0.9
				c2.7,4.6,7.6,7.3,12.8,7.3c0.9,0,1.9-0.1,2.8-0.3c1.3-0.3,2.6-0.7,3.8-1.3c1.6-0.8,1.6-0.8,7.8-6.3c3.2-2.8,7.8-6.9,13.2-11.7
				c9.6-8.6,23-20.5,39.7-35.4c28.9-25.7,57.6-51.4,57.6-51.4l1.3-1.2l0.9-1.5c2.7-4.4,3-9.8,0.7-14.4c-2.7-5.4-7.4-8.2-13.9-8.3
				l-9.4-0.4l47.1-88.5l0.3-0.6C510.9,110.9,513.4,105.6,510.2,99.3z M420.5,208.3l-33.9-2.8c14.2-12.5,80.9-71.2,104.1-91.5
				l-55,103.3l32.6,1.4c-32.1,28.6-83.8,74.7-103.7,92.3L420.5,208.3z"/>
		</g>
		<g id="XMLID_426_">
			<path id="XMLID_430_" class="st2" d="M356.4,320.3C356.4,320.3,356.4,320.3,356.4,320.3l-0.1-2.1
				C356.1,318.8,356.1,319.6,356.4,320.3z"/>
			<path id="XMLID_429_" class="st2" d="M423.3,212.6l73.2-108.9c-0.3,0.2-114.7,100.8-114.8,100.9c-1.1,1.1-1.6,1.9-1.1,3.3
				c0.3,0.8,1.1,1.2,1.8,1.3l0,0.1l31.8,2.6l-57.9,106.3l96.3-104.3l2.4-0.1l-11.8-0.5L423.3,212.6z"/>
			<path id="XMLID_428_" class="st3" d="M443.2,213.2l56.3-105.8c0.6-1.3,0.8-1.8,0.4-2.7c-0.6-1.2-2.1-1.7-3.3-1.1l-73.2,108.9
				L443.2,213.2z"/>
			<path id="XMLID_427_" class="st3" d="M356.4,318.2l0.1,2.1c0.6,1.2,2.1,1.6,3.3,1c0.6-0.3,115.7-102.9,115.7-102.9
				c0.4-0.7,0.5-1.6,0.1-2.4c-0.6-1.2-1.1-1.5-3.3-1.5l-17.3-0.8l-2.4,0.1L356.4,318.2z"/>
		</g>
	</g>
</g>
</svg>
